<svg width="245" height="31" viewBox="0 0 245 31" fill="none" xmlns="http://www.w3.org/2000/svg">
<path d="M11.56 30.48C8.65333 30.48 6.2 29.8933 4.2 28.72C2.22667 27.52 0.826667 25.8533 1.49012e-08 23.72L5.76 21.64C6.13333 22.92 6.82667 23.8667 7.84 24.48C8.88 25.0933 10.1333 25.4 11.6 25.4C12.3733 25.4 13.12 25.32 13.84 25.16C14.56 24.9733 15.16 24.68 15.64 24.28C16.12 23.8533 16.36 23.2933 16.36 22.6C16.36 21.6667 15.9067 20.9467 15 20.44C14.0933 19.9067 12.92 19.5067 11.48 19.24L8.24 18.6C6.8 18.3067 5.45333 17.8667 4.2 17.28C2.97333 16.6667 1.98667 15.8667 1.24 14.88C0.493333 13.8667 0.12 12.6 0.12 11.08C0.12 9.64 0.453333 8.4 1.12 7.36C1.78667 6.32 2.66667 5.46667 3.76 4.8C4.88 4.13333 6.10667 3.64 7.44 3.32C8.77333 2.97333 10.1067 2.8 11.44 2.8C12.88 2.8 14.2667 3 15.6 3.4C16.96 3.8 18.1733 4.42667 19.24 5.28C20.3067 6.10667 21.12 7.21333 21.68 8.6L15.96 10.68C15.6133 9.77333 14.9867 9.08 14.08 8.6C13.2 8.12 12.1333 7.88 10.88 7.88C9.65333 7.88 8.62667 8.10667 7.8 8.56C7 8.98667 6.6 9.61333 6.6 10.44C6.6 11.1067 6.88 11.68 7.44 12.16C8 12.64 8.73333 12.9733 9.64 13.16L13.24 13.88C14.3333 14.0933 15.44 14.3733 16.56 14.72C17.68 15.04 18.7067 15.48 19.64 16.04C20.6 16.5733 21.3733 17.2933 21.96 18.2C22.5467 19.1067 22.84 20.2533 22.84 21.64C22.84 23.0533 22.5067 24.32 21.84 25.44C21.2 26.5333 20.3333 27.4533 19.24 28.2C18.1733 28.9467 16.9733 29.52 15.64 29.92C14.3067 30.2933 12.9467 30.48 11.56 30.48ZM35.2456 30.48C33.4056 30.48 31.6856 30.1067 30.0856 29.36C28.4856 28.6133 27.1923 27.4667 26.2056 25.92C25.219 24.3467 24.7256 22.3733 24.7256 20C24.7256 17.6 25.219 15.64 26.2056 14.12C27.1923 12.5733 28.4856 11.44 30.0856 10.72C31.6856 9.97333 33.4056 9.6 35.2456 9.6C37.059 9.6 38.7656 9.97333 40.3656 10.72C41.9656 11.44 43.259 12.5733 44.2456 14.12C45.2323 15.64 45.7256 17.6 45.7256 20C45.7256 22.3733 45.2323 24.3467 44.2456 25.92C43.259 27.4667 41.9656 28.6133 40.3656 29.36C38.7656 30.1067 37.059 30.48 35.2456 30.48ZM35.2456 25.76C36.4723 25.76 37.4856 25.32 38.2856 24.44C39.1123 23.56 39.5256 22.08 39.5256 20C39.5256 17.8933 39.099 16.4267 38.2456 15.6C37.419 14.7467 36.419 14.32 35.2456 14.32C34.0456 14.32 33.019 14.7467 32.1656 15.6C31.339 16.4267 30.9256 17.8933 30.9256 20C30.9256 22.08 31.339 23.56 32.1656 24.44C32.9923 25.32 34.019 25.76 35.2456 25.76ZM50.1753 30V14.8H46.8953V10.16H50.1753V6.92C50.1753 5.34667 50.442 4.12 50.9753 3.24C51.5086 2.36 52.3353 1.74667 53.4553 1.4C54.5753 1.05333 56.0286 0.879998 57.8153 0.879998H60.5753V5.68H58.8953C57.8286 5.68 57.122 5.78667 56.7753 6C56.4286 6.21333 56.2553 6.70667 56.2553 7.48V10.16H60.5753V14.8H56.2553V30H50.1753ZM72.2116 30C70.5849 30 69.2916 29.8667 68.3316 29.6C67.3716 29.3067 66.6782 28.76 66.2516 27.96C65.8516 27.1333 65.6516 25.9467 65.6516 24.4V14.8H62.3716V10.16H65.6516V5.2H71.7316V10.16H76.0516V14.8H71.7316V22.8C71.7316 23.7333 71.9049 24.3467 72.2516 24.64C72.6249 24.9067 73.3049 25.04 74.2916 25.04H76.0516V30H72.2116ZM78.7678 30V3.28H97.8878V8.84H85.0878V13.48H97.8878V19.04H85.0878V30H78.7678ZM107.326 30C105.699 30 104.406 29.8667 103.446 29.6C102.486 29.3067 101.792 28.76 101.366 27.96C100.966 27.1333 100.766 25.9467 100.766 24.4V3.28H106.846V22.8C106.846 23.7333 107.032 24.3467 107.406 24.64C107.779 24.9067 108.472 25.04 109.486 25.04H111.206V30H107.326ZM122.824 30.48C120.984 30.48 119.264 30.1067 117.664 29.36C116.064 28.6133 114.77 27.4667 113.784 25.92C112.797 24.3467 112.304 22.3733 112.304 20C112.304 17.6 112.797 15.64 113.784 14.12C114.77 12.5733 116.064 11.44 117.664 10.72C119.264 9.97333 120.984 9.6 122.824 9.6C124.637 9.6 126.344 9.97333 127.944 10.72C129.544 11.44 130.837 12.5733 131.824 14.12C132.81 15.64 133.304 17.6 133.304 20C133.304 22.3733 132.81 24.3467 131.824 25.92C130.837 27.4667 129.544 28.6133 127.944 29.36C126.344 30.1067 124.637 30.48 122.824 30.48ZM122.824 25.76C124.05 25.76 125.064 25.32 125.864 24.44C126.69 23.56 127.104 22.08 127.104 20C127.104 17.8933 126.677 16.4267 125.824 15.6C124.997 14.7467 123.997 14.32 122.824 14.32C121.624 14.32 120.597 14.7467 119.744 15.6C118.917 16.4267 118.504 17.8933 118.504 20C118.504 22.08 118.917 23.56 119.744 24.44C120.57 25.32 121.597 25.76 122.824 25.76ZM142.073 30.48C140.82 30.48 139.673 30.24 138.633 29.76C137.593 29.28 136.767 28.6133 136.153 27.76C135.54 26.88 135.233 25.84 135.233 24.64C135.233 23.0133 135.793 21.72 136.913 20.76C138.06 19.8 139.62 19.08 141.593 18.6C143.567 18.12 145.833 17.7867 148.393 17.6C148.393 16.1867 148.167 15.1867 147.713 14.6C147.26 14.0133 146.38 13.72 145.073 13.72C144.247 13.72 143.513 13.92 142.873 14.32C142.26 14.6933 141.847 15.28 141.633 16.08L136.513 14.24C137.18 12.9067 138.287 11.8 139.833 10.92C141.407 10.04 143.327 9.6 145.593 9.6C148.42 9.6 150.593 10.2267 152.113 11.48C153.633 12.7333 154.393 14.8667 154.393 17.88V22.24C154.393 23.0933 154.42 24.0133 154.473 25C154.527 25.9867 154.607 26.92 154.713 27.8C154.82 28.68 154.94 29.4133 155.073 30H149.433L148.713 27.6C147.967 28.64 147.02 29.3867 145.873 29.84C144.753 30.2667 143.487 30.48 142.073 30.48ZM144.313 26.32C145.513 26.32 146.513 26 147.313 25.36C148.113 24.72 148.513 23.4933 148.513 21.68V21.2C146.407 21.3867 144.713 21.68 143.433 22.08C142.153 22.4533 141.513 23.16 141.513 24.2C141.513 24.84 141.78 25.36 142.313 25.76C142.847 26.1333 143.513 26.32 144.313 26.32ZM166.743 30C165.116 30 163.823 29.8667 162.863 29.6C161.903 29.3067 161.209 28.76 160.783 27.96C160.383 27.1333 160.183 25.9467 160.183 24.4V14.8H156.903V10.16H160.183V5.2H166.263V10.16H170.583V14.8H166.263V22.8C166.263 23.7333 166.436 24.3467 166.783 24.64C167.156 24.9067 167.836 25.04 168.823 25.04H170.583V30H166.743Z" fill="#003057"/>
<path d="M173.299 30V3.28H179.619V13.48H190.619V3.28H196.939V30H190.619V19.04H179.619V30H173.299ZM200.448 30V3.28H206.768V24.44H219.568V30H200.448ZM232.732 30.48C229.825 30.48 227.372 29.8933 225.372 28.72C223.399 27.52 221.999 25.8533 221.172 23.72L226.932 21.64C227.305 22.92 227.999 23.8667 229.012 24.48C230.052 25.0933 231.305 25.4 232.772 25.4C233.545 25.4 234.292 25.32 235.012 25.16C235.732 24.9733 236.332 24.68 236.812 24.28C237.292 23.8533 237.532 23.2933 237.532 22.6C237.532 21.6667 237.079 20.9467 236.172 20.44C235.265 19.9067 234.092 19.5067 232.652 19.24L229.412 18.6C227.972 18.3067 226.625 17.8667 225.372 17.28C224.145 16.6667 223.159 15.8667 222.412 14.88C221.665 13.8667 221.292 12.6 221.292 11.08C221.292 9.64 221.625 8.4 222.292 7.36C222.959 6.32 223.839 5.46667 224.932 4.8C226.052 4.13333 227.279 3.64 228.612 3.32C229.945 2.97333 231.279 2.8 232.612 2.8C234.052 2.8 235.439 3 236.772 3.4C238.132 3.8 239.345 4.42667 240.412 5.28C241.479 6.10667 242.292 7.21333 242.852 8.6L237.132 10.68C236.785 9.77333 236.159 9.08 235.252 8.6C234.372 8.12 233.305 7.88 232.052 7.88C230.825 7.88 229.799 8.10667 228.972 8.56C228.172 8.98667 227.772 9.61333 227.772 10.44C227.772 11.1067 228.052 11.68 228.612 12.16C229.172 12.64 229.905 12.9733 230.812 13.16L234.412 13.88C235.505 14.0933 236.612 14.3733 237.732 14.72C238.852 15.04 239.879 15.48 240.812 16.04C241.772 16.5733 242.545 17.2933 243.132 18.2C243.719 19.1067 244.012 20.2533 244.012 21.64C244.012 23.0533 243.679 24.32 243.012 25.44C242.372 26.5333 241.505 27.4533 240.412 28.2C239.345 28.9467 238.145 29.52 236.812 29.92C235.479 30.2933 234.119 30.48 232.732 30.48Z" fill="#EAAA00"/>
</svg>
